<?xml version="1.0" standalone="no"?>
<!DOCTYPE svg PUBLIC "-//W3C//DTD SVG 20010904//EN"
 "http://www.w3.org/TR/2001/REC-SVG-20010904/DTD/svg10.dtd">
<svg version="1.0" xmlns="http://www.w3.org/2000/svg"
 width="64.000000pt" height="64.000000pt" viewBox="0 0 64.000000 64.000000"
 preserveAspectRatio="xMidYMid meet">

<g transform="translate(0.000000,64.000000) scale(0.100000,-0.100000)"
fill="#000000" stroke="none">
<path d="M210 593 c-30 -16 -56 -34 -58 -40 -5 -19 16 -16 45 6 38 30 123 46
175 33 50 -13 77 1 34 18 -53 20 -138 12 -196 -17z"/>
<path d="M444 575 c-9 -23 3 -45 25 -45 23 0 35 28 20 46 -15 18 -38 18 -45
-1z"/>
<path d="M495 524 c-36 -40 -54 -69 -49 -74 6 -6 29 12 60 48 60 69 67 79 55
86 -5 3 -35 -24 -66 -60z"/>
<path d="M120 510 c0 -5 5 -10 10 -10 6 0 10 5 10 10 0 6 -4 10 -10 10 -5 0
-10 -4 -10 -10z"/>
<path d="M260 470 l0 -40 -55 0 -55 0 0 -70 c0 -56 -3 -70 -15 -70 -8 0 -15 7
-15 15 0 8 -7 15 -16 15 -14 0 -16 8 -11 53 3 28 9 64 13 80 4 16 2 27 -4 27
-15 0 -32 -57 -32 -111 l0 -49 -35 0 -35 0 0 -120 0 -120 60 0 c33 0 60 4 60
10 0 20 51 9 150 -30 111 -44 150 -48 244 -25 92 23 116 35 122 60 7 29 -11
65 -34 66 -26 2 -25 2 -59 -4 -41 -8 -42 4 -4 61 34 49 54 130 45 178 -10 54
-21 39 -26 -33 -2 -39 -12 -85 -23 -108 l-20 -40 -3 73 -3 72 -54 0 -54 0 -3
73 -3 72 -67 3 -68 3 0 -41z m110 -110 c0 -66 -3 -120 -7 -120 -5 1 -24 9 -43
18 l-35 17 -3 103 -3 102 46 0 45 0 0 -120z m-110 -15 l0 -55 -45 0 -45 0 0
55 0 55 45 0 45 0 0 -55z m220 -104 c0 -94 -1 -99 -22 -105 -58 -15 -58 -15
-58 99 l0 105 40 0 40 0 0 -99z m-390 -41 l0 -100 -30 0 -30 0 0 100 0 100 30
0 30 0 0 -100z m205 42 c78 -32 98 -53 74 -77 -14 -15 -21 -14 -70 4 -64 25
-59 24 -59 8 0 -16 137 -67 181 -67 19 0 63 7 98 15 74 18 94 14 89 -17 -2
-18 -17 -26 -83 -44 -44 -12 -92 -23 -107 -23 -15 -1 -80 19 -144 44 -64 25
-125 45 -135 45 -17 0 -19 8 -19 70 l0 70 53 0 c36 0 77 -9 122 -28z"/>
<path d="M514 485 c-9 -23 3 -45 25 -45 23 0 35 28 20 46 -15 18 -38 18 -45
-1z"/>
</g>
</svg>
