
<svg version="1.0"
 width="512.000000pt" height="512.000000pt" viewBox="0 0 512.000000 512.000000"
 preserveAspectRatio="xMidYMid meet">

<g transform="translate(0.000000,512.000000) scale(0.100000,-0.100000)"
fill="#000000" stroke="none">
<path d="M1325 4503 c-676 -338 -1231 -617 -1233 -618 -2 -2 49 -107 113 -234
98 -195 125 -240 170 -285 63 -63 155 -112 243 -128 l62 -12 -2 -990 -3 -991
-337 -3 -338 -2 0 -450 0 -450 995 0 995 0 0 -170 0 -170 570 0 570 0 0 170 0
170 995 0 995 0 0 450 0 450 -337 2 -338 3 -3 991 -2 992 62 11 c88 15 180 63
243 127 45 45 72 90 170 285 64 127 115 232 113 234 -5 4 -2468 1235 -2470
1234 -2 0 -556 -277 -1233 -616z m2275 -238 l1030 -515 -39 -78 c-53 -105 -96
-141 -169 -142 -16 -1 -394 182 -944 457 l-918 458 -917 -458 c-551 -275 -929
-458 -945 -457 -73 1 -116 37 -169 142 l-39 78 1027 514 c566 283 1034 515
1041 515 6 1 476 -231 1042 -514z m-250 -550 l790 -395 0 -1040 0 -1040 -552
2 -552 3 -13 60 c-12 61 -19 715 -7 715 3 0 24 -16 47 -35 l41 -35 285 0 286
0 122 122 123 123 0 435 0 435 -122 122 -123 123 -283 0 -283 0 -70 -54 c-92
-72 -157 -109 -254 -142 -72 -26 -93 -28 -220 -29 -109 0 -153 4 -200 18 -91
28 -192 82 -277 148 l-77 59 -283 0 -283 0 -122 -122 -123 -123 0 -435 0 -435
122 -122 123 -123 286 0 285 0 41 35 c23 19 44 35 47 35 12 0 5 -654 -7 -715
l-13 -60 -552 -3 -552 -2 0 1040 0 1040 788 394 c433 217 788 395 790 395 1 1
358 -177 792 -394z m-1540 -1085 l0 -380 -123 0 c-122 0 -124 0 -150 28 l-27
28 0 324 0 324 27 28 c26 28 28 28 150 28 l123 0 0 -380z m1773 352 l27 -28 0
-324 0 -324 -27 -28 c-26 -28 -28 -28 -150 -28 l-123 0 0 380 0 380 123 0
c122 0 124 0 150 -28z m-1256 -179 c50 -13 111 -17 233 -17 180 0 239 10 375
63 l75 29 0 -248 0 -248 -75 29 c-136 53 -195 63 -375 63 -180 0 -239 -10
-375 -63 l-75 -29 0 248 0 248 75 -29 c41 -16 105 -37 142 -46z m346 -629 l37
-7 0 -328 0 -329 -150 0 -150 0 0 329 0 330 28 4 c45 7 194 7 235 1z m62 -973
c3 -5 16 -65 30 -133 14 -68 27 -133 30 -145 l5 -23 -240 0 -240 0 5 23 c3 12
16 77 30 145 14 68 27 128 30 133 8 12 342 12 350 0z m-715 -273 c-1 -7 -7
-42 -15 -78 -8 -36 -14 -98 -15 -137 l0 -73 -845 0 -845 0 0 150 0 150 860 0
c682 0 860 -3 860 -12z m2800 -138 l0 -150 -845 0 -845 0 0 73 c-1 39 -7 101
-15 137 -8 36 -14 71 -15 78 0 9 178 12 860 12 l860 0 0 -150z m-1990 -340 l0
-150 -270 0 -270 0 0 150 0 150 270 0 270 0 0 -150z"/>
</g>
</svg>
